<svg xmlns="http://www.w3.org/2000/svg" xmlns:xlink="http://www.w3.org/1999/xlink" width="500" zoomAndPan="magnify" viewBox="0 0 375 374.999991" height="500" preserveAspectRatio="xMidYMid meet" version="1.2"><defs><clipPath id="9c1f7f4842"><path d="M 168.804688 161.238281 L 206.195312 161.238281 L 206.195312 255 L 168.804688 255 Z M 168.804688 161.238281 "/></clipPath><clipPath id="a45ee94b8a"><path d="M 187.5 161.238281 C 197.824219 161.238281 206.195312 169.609375 206.195312 179.933594 L 206.195312 236.265625 C 206.195312 246.589844 197.824219 254.960938 187.5 254.960938 C 177.175781 254.960938 168.804688 246.589844 168.804688 236.265625 L 168.804688 179.933594 C 168.804688 169.609375 177.175781 161.238281 187.5 161.238281 Z M 187.5 161.238281 "/></clipPath><clipPath id="0c4dad925e"><path d="M 0.804688 0.238281 L 38.195312 0.238281 L 38.195312 94 L 0.804688 94 Z M 0.804688 0.238281 "/></clipPath><clipPath id="b38fa20050"><path d="M 19.5 0.238281 C 29.824219 0.238281 38.195312 8.609375 38.195312 18.933594 L 38.195312 75.265625 C 38.195312 85.589844 29.824219 93.960938 19.5 93.960938 C 9.175781 93.960938 0.804688 85.589844 0.804688 75.265625 L 0.804688 18.933594 C 0.804688 8.609375 9.175781 0.238281 19.5 0.238281 Z M 19.5 0.238281 "/></clipPath><clipPath id="3fb03b38d2"><rect x="0" width="39" y="0" height="94"/></clipPath><clipPath id="787426d461"><path d="M 120.160156 120.039062 L 157.554688 120.039062 L 157.554688 213.8125 L 120.160156 213.8125 Z M 120.160156 120.039062 "/></clipPath><clipPath id="498b7fe5ed"><path d="M 138.855469 120.039062 C 149.183594 120.039062 157.554688 128.410156 157.554688 138.734375 L 157.554688 195.066406 C 157.554688 205.390625 149.183594 213.761719 138.855469 213.761719 C 128.53125 213.761719 120.160156 205.390625 120.160156 195.066406 L 120.160156 138.734375 C 120.160156 128.410156 128.53125 120.039062 138.855469 120.039062 Z M 138.855469 120.039062 "/></clipPath><clipPath id="3c360488be"><path d="M 0.160156 0.0390625 L 37.554688 0.0390625 L 37.554688 93.8125 L 0.160156 93.8125 Z M 0.160156 0.0390625 "/></clipPath><clipPath id="fb3e69d77c"><path d="M 18.855469 0.0390625 C 29.183594 0.0390625 37.554688 8.410156 37.554688 18.734375 L 37.554688 75.066406 C 37.554688 85.390625 29.183594 93.761719 18.855469 93.761719 C 8.53125 93.761719 0.160156 85.390625 0.160156 75.066406 L 0.160156 18.734375 C 0.160156 8.410156 8.53125 0.0390625 18.855469 0.0390625 Z M 18.855469 0.0390625 "/></clipPath><clipPath id="cc98f0cc52"><rect x="0" width="38" y="0" height="94"/></clipPath><clipPath id="08908b4a5d"><path d="M 217.445312 120.039062 L 254.839844 120.039062 L 254.839844 213.8125 L 217.445312 213.8125 Z M 217.445312 120.039062 "/></clipPath><clipPath id="fd559dfebc"><path d="M 236.144531 120.039062 C 246.46875 120.039062 254.839844 128.410156 254.839844 138.734375 L 254.839844 195.066406 C 254.839844 205.390625 246.46875 213.761719 236.144531 213.761719 C 225.816406 213.761719 217.445312 205.390625 217.445312 195.066406 L 217.445312 138.734375 C 217.445312 128.410156 225.816406 120.039062 236.144531 120.039062 Z M 236.144531 120.039062 "/></clipPath><clipPath id="59c0f60b7d"><path d="M 0.445312 0.0390625 L 37.839844 0.0390625 L 37.839844 93.8125 L 0.445312 93.8125 Z M 0.445312 0.0390625 "/></clipPath><clipPath id="b3eb90baad"><path d="M 19.144531 0.0390625 C 29.46875 0.0390625 37.839844 8.410156 37.839844 18.734375 L 37.839844 75.066406 C 37.839844 85.390625 29.46875 93.761719 19.144531 93.761719 C 8.816406 93.761719 0.445312 85.390625 0.445312 75.066406 L 0.445312 18.734375 C 0.445312 8.410156 8.816406 0.0390625 19.144531 0.0390625 Z M 19.144531 0.0390625 "/></clipPath><clipPath id="0e98a952ed"><rect x="0" width="38" y="0" height="94"/></clipPath></defs><g id="c02be53eb8"><g clip-rule="nonzero" clip-path="url(#9c1f7f4842)"><g clip-rule="nonzero" clip-path="url(#a45ee94b8a)"><g transform="matrix(1,0,0,1,168,161)"><g clip-path="url(#3fb03b38d2)"><g clip-rule="nonzero" clip-path="url(#0c4dad925e)"><g clip-rule="nonzero" clip-path="url(#b38fa20050)"><path style=" stroke:none;fill-rule:nonzero;fill:#f8bd61;fill-opacity:1;" d="M 0.804688 0.238281 L 38.195312 0.238281 L 38.195312 94.011719 L 0.804688 94.011719 Z M 0.804688 0.238281 "/></g></g></g></g></g></g><g clip-rule="nonzero" clip-path="url(#787426d461)"><g clip-rule="nonzero" clip-path="url(#498b7fe5ed)"><g transform="matrix(1,0,0,1,120,120)"><g clip-path="url(#cc98f0cc52)"><g clip-rule="nonzero" clip-path="url(#3c360488be)"><g clip-rule="nonzero" clip-path="url(#fb3e69d77c)"><path style=" stroke:none;fill-rule:nonzero;fill:#92a0f5;fill-opacity:1;" d="M 0.160156 0.0390625 L 37.554688 0.0390625 L 37.554688 93.8125 L 0.160156 93.8125 Z M 0.160156 0.0390625 "/></g></g></g></g></g></g><g clip-rule="nonzero" clip-path="url(#08908b4a5d)"><g clip-rule="nonzero" clip-path="url(#fd559dfebc)"><g transform="matrix(1,0,0,1,217,120)"><g clip-path="url(#0e98a952ed)"><g clip-rule="nonzero" clip-path="url(#59c0f60b7d)"><g clip-rule="nonzero" clip-path="url(#b3eb90baad)"><path style=" stroke:none;fill-rule:nonzero;fill:#e16062;fill-opacity:1;" d="M 0.445312 0.0390625 L 37.839844 0.0390625 L 37.839844 93.8125 L 0.445312 93.8125 Z M 0.445312 0.0390625 "/></g></g></g></g></g></g></g></svg>